<svg width="80" height="80" viewBox="0 0 80 80" fill="none" xmlns="http://www.w3.org/2000/svg">
  <!-- Single elegant daisy flower -->
  <!-- Petals (cream white) -->
  <ellipse cx="40" cy="20" rx="6" ry="12" fill="#FDFCFA" stroke="#6B5744" stroke-width="1.5" opacity="0.95"/>
  <ellipse cx="40" cy="60" rx="6" ry="12" fill="#FDFCFA" stroke="#6B5744" stroke-width="1.5" opacity="0.95"/>
  <ellipse cx="20" cy="40" rx="12" ry="6" fill="#FDFCFA" stroke="#6B5744" stroke-width="1.5" opacity="0.95"/>
  <ellipse cx="60" cy="40" rx="12" ry="6" fill="#FDFCFA" stroke="#6B5744" stroke-width="1.5" opacity="0.95"/>

  <!-- Diagonal petals -->
  <ellipse cx="28" cy="28" rx="6" ry="12" fill="#FDFCFA" stroke="#6B5744" stroke-width="1.5" opacity="0.95" transform="rotate(-45 28 28)"/>
  <ellipse cx="52" cy="28" rx="6" ry="12" fill="#FDFCFA" stroke="#6B5744" stroke-width="1.5" opacity="0.95" transform="rotate(45 52 28)"/>
  <ellipse cx="28" cy="52" rx="6" ry="12" fill="#FDFCFA" stroke="#6B5744" stroke-width="1.5" opacity="0.95" transform="rotate(45 28 52)"/>
  <ellipse cx="52" cy="52" rx="6" ry="12" fill="#FDFCFA" stroke="#6B5744" stroke-width="1.5" opacity="0.95" transform="rotate(-45 52 52)"/>

  <!-- Center (gold) -->
  <circle cx="40" cy="40" r="8" fill="#C9A961" stroke="#A68952" stroke-width="1.5"/>
  <circle cx="40" cy="40" r="6" fill="#D9B978" opacity="0.7"/>

  <!-- Texture dots in center -->
  <circle cx="37" cy="38" r="0.8" fill="#A68952" opacity="0.6"/>
  <circle cx="43" cy="38" r="0.8" fill="#A68952" opacity="0.6"/>
  <circle cx="40" cy="41" r="0.8" fill="#A68952" opacity="0.6"/>
  <circle cx="38" cy="43" r="0.8" fill="#A68952" opacity="0.6"/>
  <circle cx="42" cy="43" r="0.8" fill="#A68952" opacity="0.6"/>
</svg>
