<svg width="300" height="40" viewBox="0 0 300 40" fill="none" xmlns="http://www.w3.org/2000/svg">
  <!-- Elegant floral divider for paragraph breaks -->

  <!-- Center daisy -->
  <g transform="translate(150, 20)">
    <ellipse cx="0" cy="-8" rx="3" ry="8" fill="#FDFCFA" stroke="#6B5744" stroke-width="1" opacity="0.95"/>
    <ellipse cx="0" cy="8" rx="3" ry="8" fill="#FDFCFA" stroke="#6B5744" stroke-width="1" opacity="0.95"/>
    <ellipse cx="-8" cy="0" rx="8" ry="3" fill="#FDFCFA" stroke="#6B5744" stroke-width="1" opacity="0.95"/>
    <ellipse cx="8" cy="0" rx="8" ry="3" fill="#FDFCFA" stroke="#6B5744" stroke-width="1" opacity="0.95"/>
    <ellipse cx="-6" cy="-6" rx="3" ry="8" fill="#FDFCFA" stroke="#6B5744" stroke-width="1" opacity="0.95" transform="rotate(-45 -6 -6)"/>
    <ellipse cx="6" cy="-6" rx="3" ry="8" fill="#FDFCFA" stroke="#6B5744" stroke-width="1" opacity="0.95" transform="rotate(45 6 -6)"/>
    <ellipse cx="-6" cy="6" rx="3" ry="8" fill="#FDFCFA" stroke="#6B5744" stroke-width="1" opacity="0.95" transform="rotate(45 -6 6)"/>
    <ellipse cx="6" cy="6" rx="3" ry="8" fill="#FDFCFA" stroke="#6B5744" stroke-width="1" opacity="0.95" transform="rotate(-45 6 6)"/>
    <circle r="4" fill="#C9A961" stroke="#A68952" stroke-width="1"/>
  </g>

  <!-- Decorative curved lines extending from center -->
  <path d="M10 20 Q80 22 140 20" stroke="#C9A961" stroke-width="1.5" fill="none" opacity="0.7" stroke-linecap="round"/>
  <path d="M290 20 Q220 22 160 20" stroke="#C9A961" stroke-width="1.5" fill="none" opacity="0.7" stroke-linecap="round"/>

  <!-- Small leaves on either side -->
  <ellipse cx="50" cy="20" rx="5" ry="10" fill="#D4DED0" stroke="#B8C9B0" stroke-width="1" opacity="0.7" transform="rotate(25 50 20)"/>
  <ellipse cx="100" cy="18" rx="5" ry="10" fill="#D4DED0" stroke="#B8C9B0" stroke-width="1" opacity="0.7" transform="rotate(-25 100 18)"/>
  <ellipse cx="250" cy="20" rx="5" ry="10" fill="#D4DED0" stroke="#B8C9B0" stroke-width="1" opacity="0.7" transform="rotate(-25 250 20)"/>
  <ellipse cx="200" cy="18" rx="5" ry="10" fill="#D4DED0" stroke="#B8C9B0" stroke-width="1" opacity="0.7" transform="rotate(25 200 18)"/>
</svg>
